M48
INCH,TZ
T1C0.025
T2C0.040
T3C0.079
%
G90
G05
T1
X55315Y-41142
X56102Y-42815
X56102Y-43504
X56102Y-44291
X56102Y-45177
X56988Y-41043
X57008Y-42992
X57087Y-45197
X57717Y-41890
X57972Y-41043
X58268Y-45197
X58760Y-41043
X59350Y-41043
X59350Y-42126
X59350Y-43012
X59370Y-45276
T2
X55587Y-40157
X56587Y-40157
X57587Y-40157
X58587Y-40157
T3
X54331Y-40157
X54331Y-44488
X59843Y-40157
X59843Y-44488
T0
M30
