%FSLAX34Y34*%
G04 Gerber Fmt 3.4, Leading zero omitted, Abs format*
G04 (created by PCBNEW (2014-03-19 BZR 4756)-product) date Tue 27 May 2014 12:44:42 BST*
%MOIN*%
G01*
G70*
G90*
G04 APERTURE LIST*
%ADD10C,0.005906*%
%ADD11C,0.009843*%
G04 APERTURE END LIST*
G54D10*
X58492Y-43770D02*
X58605Y-43770D01*
X58605Y-43534D01*
X58447Y-43534D02*
X58312Y-43534D01*
X58380Y-43770D02*
X58380Y-43534D01*
X58121Y-43534D02*
X58233Y-43534D01*
X58245Y-43646D01*
X58233Y-43635D01*
X58211Y-43624D01*
X58155Y-43624D01*
X58132Y-43635D01*
X58121Y-43646D01*
X58110Y-43669D01*
X58110Y-43725D01*
X58121Y-43747D01*
X58132Y-43758D01*
X58155Y-43770D01*
X58211Y-43770D01*
X58233Y-43758D01*
X58245Y-43747D01*
X57896Y-43534D02*
X58008Y-43534D01*
X58020Y-43646D01*
X58008Y-43635D01*
X57986Y-43624D01*
X57930Y-43624D01*
X57907Y-43635D01*
X57896Y-43646D01*
X57885Y-43669D01*
X57885Y-43725D01*
X57896Y-43747D01*
X57907Y-43758D01*
X57930Y-43770D01*
X57986Y-43770D01*
X58008Y-43758D01*
X58020Y-43747D01*
X57806Y-43534D02*
X57660Y-43534D01*
X57739Y-43624D01*
X57705Y-43624D01*
X57682Y-43635D01*
X57671Y-43646D01*
X57660Y-43669D01*
X57660Y-43725D01*
X57671Y-43747D01*
X57682Y-43758D01*
X57705Y-43770D01*
X57772Y-43770D01*
X57795Y-43758D01*
X57806Y-43747D01*
X57457Y-43612D02*
X57457Y-43770D01*
X57514Y-43522D02*
X57570Y-43691D01*
X57424Y-43691D01*
X58605Y-44160D02*
X58605Y-43923D01*
X58605Y-44013D02*
X58582Y-44002D01*
X58537Y-44002D01*
X58515Y-44013D01*
X58503Y-44025D01*
X58492Y-44047D01*
X58492Y-44115D01*
X58503Y-44137D01*
X58515Y-44148D01*
X58537Y-44160D01*
X58582Y-44160D01*
X58605Y-44148D01*
X58391Y-44160D02*
X58391Y-44002D01*
X58391Y-44047D02*
X58380Y-44025D01*
X58368Y-44013D01*
X58346Y-44002D01*
X58323Y-44002D01*
X58155Y-44148D02*
X58177Y-44160D01*
X58222Y-44160D01*
X58245Y-44148D01*
X58256Y-44126D01*
X58256Y-44036D01*
X58245Y-44013D01*
X58222Y-44002D01*
X58177Y-44002D01*
X58155Y-44013D01*
X58143Y-44036D01*
X58143Y-44058D01*
X58256Y-44081D01*
X57941Y-44160D02*
X57941Y-44036D01*
X57952Y-44013D01*
X57975Y-44002D01*
X58020Y-44002D01*
X58042Y-44013D01*
X57941Y-44148D02*
X57964Y-44160D01*
X58020Y-44160D01*
X58042Y-44148D01*
X58053Y-44126D01*
X58053Y-44103D01*
X58042Y-44081D01*
X58020Y-44070D01*
X57964Y-44070D01*
X57941Y-44058D01*
X57829Y-44160D02*
X57829Y-43923D01*
X57806Y-44070D02*
X57739Y-44160D01*
X57739Y-44002D02*
X57829Y-44092D01*
X57604Y-44160D02*
X57626Y-44148D01*
X57637Y-44137D01*
X57649Y-44115D01*
X57649Y-44047D01*
X57637Y-44025D01*
X57626Y-44013D01*
X57604Y-44002D01*
X57570Y-44002D01*
X57547Y-44013D01*
X57536Y-44025D01*
X57525Y-44047D01*
X57525Y-44115D01*
X57536Y-44137D01*
X57547Y-44148D01*
X57570Y-44160D01*
X57604Y-44160D01*
X57322Y-44002D02*
X57322Y-44160D01*
X57424Y-44002D02*
X57424Y-44126D01*
X57412Y-44148D01*
X57390Y-44160D01*
X57356Y-44160D01*
X57334Y-44148D01*
X57322Y-44137D01*
X57244Y-44002D02*
X57154Y-44002D01*
X57210Y-43923D02*
X57210Y-44126D01*
X57199Y-44148D01*
X57176Y-44160D01*
X57154Y-44160D01*
G54D11*
X55374Y-41049D02*
X55768Y-41181D01*
X55374Y-41312D01*
X55749Y-41612D02*
X55768Y-41574D01*
X55768Y-41499D01*
X55749Y-41462D01*
X55731Y-41443D01*
X55693Y-41424D01*
X55581Y-41424D01*
X55543Y-41443D01*
X55524Y-41462D01*
X55506Y-41499D01*
X55506Y-41574D01*
X55524Y-41612D01*
X55749Y-41949D02*
X55768Y-41912D01*
X55768Y-41837D01*
X55749Y-41799D01*
X55731Y-41781D01*
X55693Y-41762D01*
X55581Y-41762D01*
X55543Y-41781D01*
X55524Y-41799D01*
X55506Y-41837D01*
X55506Y-41912D01*
X55524Y-41949D01*
X55918Y-42530D02*
X55899Y-42512D01*
X55843Y-42474D01*
X55806Y-42455D01*
X55749Y-42437D01*
X55656Y-42418D01*
X55581Y-42418D01*
X55487Y-42437D01*
X55431Y-42455D01*
X55393Y-42474D01*
X55337Y-42512D01*
X55318Y-42530D01*
X55374Y-42643D02*
X55374Y-42887D01*
X55524Y-42755D01*
X55524Y-42812D01*
X55543Y-42849D01*
X55562Y-42868D01*
X55599Y-42887D01*
X55693Y-42887D01*
X55731Y-42868D01*
X55749Y-42849D01*
X55768Y-42812D01*
X55768Y-42699D01*
X55749Y-42662D01*
X55731Y-42643D01*
X55374Y-42999D02*
X55768Y-43130D01*
X55374Y-43262D01*
X55374Y-43355D02*
X55374Y-43599D01*
X55524Y-43468D01*
X55524Y-43524D01*
X55543Y-43562D01*
X55562Y-43580D01*
X55599Y-43599D01*
X55693Y-43599D01*
X55731Y-43580D01*
X55749Y-43562D01*
X55768Y-43524D01*
X55768Y-43412D01*
X55749Y-43374D01*
X55731Y-43355D01*
X55918Y-43730D02*
X55899Y-43749D01*
X55843Y-43787D01*
X55806Y-43805D01*
X55749Y-43824D01*
X55656Y-43843D01*
X55581Y-43843D01*
X55487Y-43824D01*
X55431Y-43805D01*
X55393Y-43787D01*
X55337Y-43749D01*
X55318Y-43730D01*
X56586Y-41077D02*
X56586Y-41209D01*
X56792Y-41265D02*
X56792Y-41077D01*
X56398Y-41077D01*
X56398Y-41265D01*
X56529Y-41434D02*
X56792Y-41434D01*
X56567Y-41434D02*
X56548Y-41452D01*
X56529Y-41490D01*
X56529Y-41546D01*
X56548Y-41584D01*
X56586Y-41602D01*
X56792Y-41602D01*
X56792Y-41959D02*
X56586Y-41959D01*
X56548Y-41940D01*
X56529Y-41902D01*
X56529Y-41827D01*
X56548Y-41790D01*
X56773Y-41959D02*
X56792Y-41921D01*
X56792Y-41827D01*
X56773Y-41790D01*
X56736Y-41771D01*
X56698Y-41771D01*
X56661Y-41790D01*
X56642Y-41827D01*
X56642Y-41921D01*
X56623Y-41959D01*
X56792Y-42146D02*
X56398Y-42146D01*
X56548Y-42146D02*
X56529Y-42184D01*
X56529Y-42259D01*
X56548Y-42296D01*
X56567Y-42315D01*
X56604Y-42334D01*
X56717Y-42334D01*
X56754Y-42315D01*
X56773Y-42296D01*
X56792Y-42259D01*
X56792Y-42184D01*
X56773Y-42146D01*
X56792Y-42559D02*
X56773Y-42521D01*
X56736Y-42502D01*
X56398Y-42502D01*
X56773Y-42859D02*
X56792Y-42821D01*
X56792Y-42746D01*
X56773Y-42709D01*
X56736Y-42690D01*
X56586Y-42690D01*
X56548Y-42709D01*
X56529Y-42746D01*
X56529Y-42821D01*
X56548Y-42859D01*
X56586Y-42877D01*
X56623Y-42877D01*
X56661Y-42690D01*
X57422Y-41053D02*
X57815Y-41184D01*
X57422Y-41316D01*
X57815Y-41503D02*
X57797Y-41466D01*
X57778Y-41447D01*
X57740Y-41428D01*
X57628Y-41428D01*
X57590Y-41447D01*
X57572Y-41466D01*
X57553Y-41503D01*
X57553Y-41559D01*
X57572Y-41597D01*
X57590Y-41616D01*
X57628Y-41634D01*
X57740Y-41634D01*
X57778Y-41616D01*
X57797Y-41597D01*
X57815Y-41559D01*
X57815Y-41503D01*
X57553Y-41972D02*
X57815Y-41972D01*
X57553Y-41803D02*
X57759Y-41803D01*
X57797Y-41822D01*
X57815Y-41859D01*
X57815Y-41916D01*
X57797Y-41953D01*
X57778Y-41972D01*
X57553Y-42103D02*
X57553Y-42253D01*
X57422Y-42159D02*
X57759Y-42159D01*
X57797Y-42178D01*
X57815Y-42215D01*
X57815Y-42253D01*
X58385Y-41242D02*
X58367Y-41205D01*
X58367Y-41149D01*
X58385Y-41092D01*
X58423Y-41055D01*
X58460Y-41036D01*
X58535Y-41017D01*
X58592Y-41017D01*
X58667Y-41036D01*
X58704Y-41055D01*
X58742Y-41092D01*
X58760Y-41149D01*
X58760Y-41186D01*
X58742Y-41242D01*
X58723Y-41261D01*
X58592Y-41261D01*
X58592Y-41186D01*
X58498Y-41430D02*
X58760Y-41430D01*
X58535Y-41430D02*
X58517Y-41449D01*
X58498Y-41486D01*
X58498Y-41542D01*
X58517Y-41580D01*
X58554Y-41599D01*
X58760Y-41599D01*
X58760Y-41955D02*
X58367Y-41955D01*
X58742Y-41955D02*
X58760Y-41917D01*
X58760Y-41842D01*
X58742Y-41805D01*
X58723Y-41786D01*
X58685Y-41767D01*
X58573Y-41767D01*
X58535Y-41786D01*
X58517Y-41805D01*
X58498Y-41842D01*
X58498Y-41917D01*
X58517Y-41955D01*
M02*
