%FSLAX34Y34*%
G04 Gerber Fmt 3.4, Leading zero omitted, Abs format*
G04 (created by PCBNEW (2014-03-19 BZR 4756)-product) date Tue 27 May 2014 12:44:42 BST*
%MOIN*%
G01*
G70*
G90*
G04 APERTURE LIST*
%ADD10C,0.005906*%
%ADD11R,0.045000X0.025000*%
%ADD12R,0.023600X0.015700*%
%ADD13R,0.068000X0.080000*%
%ADD14O,0.068000X0.080000*%
%ADD15R,0.025000X0.045000*%
%ADD16R,0.019685X0.047244*%
%ADD17R,0.047244X0.086614*%
%ADD18R,0.039370X0.047244*%
%ADD19R,0.098425X0.098425*%
%ADD20C,0.035000*%
%ADD21C,0.010000*%
%ADD22C,0.007087*%
%ADD23C,0.009843*%
G04 APERTURE END LIST*
G54D10*
G54D11*
X54625Y-41933D03*
X54625Y-41333D03*
G54D12*
X55413Y-42007D03*
X55413Y-41653D03*
X57185Y-42047D03*
X57185Y-42401D03*
G54D13*
X55586Y-40157D03*
G54D14*
X56586Y-40157D03*
X57586Y-40157D03*
X58586Y-40157D03*
G54D15*
X57672Y-42421D03*
X58272Y-42421D03*
G54D10*
G36*
X56200Y-41003D02*
X56397Y-41003D01*
X56397Y-41476D01*
X56200Y-41476D01*
X56200Y-41003D01*
X56200Y-41003D01*
G37*
G36*
X56200Y-41791D02*
X56397Y-41791D01*
X56397Y-42263D01*
X56200Y-42263D01*
X56200Y-41791D01*
X56200Y-41791D01*
G37*
G36*
X56456Y-41003D02*
X56653Y-41003D01*
X56653Y-41476D01*
X56456Y-41476D01*
X56456Y-41003D01*
X56456Y-41003D01*
G37*
G54D16*
X56555Y-42027D03*
X56043Y-41240D03*
X56043Y-42027D03*
G54D17*
X57047Y-43996D03*
G54D18*
X57677Y-44625D03*
X57677Y-43366D03*
G54D17*
X58307Y-43996D03*
G54D19*
X54330Y-44488D03*
X59842Y-44488D03*
X59842Y-40157D03*
X54330Y-40157D03*
G54D20*
X58267Y-45196D03*
X57086Y-45196D03*
X55314Y-41141D03*
X59350Y-41043D03*
X59350Y-42125D03*
X59350Y-43011D03*
X58759Y-41043D03*
X57972Y-41043D03*
X56988Y-41043D03*
X59370Y-45275D03*
X57007Y-42992D03*
X57716Y-41889D03*
X56102Y-42814D03*
X56102Y-43503D03*
X56102Y-44291D03*
X56102Y-45177D03*
G54D21*
X55413Y-42007D02*
X55681Y-42007D01*
X56043Y-42027D02*
X55701Y-42027D01*
X55701Y-42027D02*
X55681Y-42007D01*
X55586Y-40157D02*
X55096Y-40157D01*
X55096Y-40157D02*
X55096Y-40604D01*
X55096Y-40604D02*
X54900Y-40799D01*
X54900Y-40799D02*
X54597Y-40799D01*
X54597Y-40799D02*
X54250Y-41146D01*
X54250Y-41146D02*
X54250Y-41558D01*
X54250Y-41558D02*
X54625Y-41933D01*
X54625Y-41933D02*
X55001Y-41933D01*
X55413Y-42007D02*
X55074Y-42007D01*
X55074Y-42007D02*
X55001Y-41933D01*
X57677Y-44239D02*
X57290Y-44239D01*
X57290Y-44239D02*
X57047Y-43996D01*
X58272Y-43963D02*
X57996Y-44239D01*
X57996Y-44239D02*
X57677Y-44239D01*
X58272Y-43963D02*
X58272Y-42421D01*
X58307Y-43996D02*
X58304Y-43996D01*
X58304Y-43996D02*
X58272Y-43963D01*
X57677Y-44625D02*
X57677Y-44239D01*
X56299Y-41240D02*
X56299Y-41641D01*
X55413Y-41653D02*
X55681Y-41653D01*
X56299Y-42027D02*
X56299Y-41641D01*
X56299Y-41641D02*
X55693Y-41641D01*
X55693Y-41641D02*
X55681Y-41653D01*
X56299Y-42220D02*
X56299Y-42027D01*
X55413Y-41653D02*
X54670Y-41653D01*
X54625Y-41333D02*
X54625Y-41608D01*
X54670Y-41653D02*
X54625Y-41608D01*
X58586Y-40157D02*
X58586Y-40707D01*
X58272Y-42421D02*
X58547Y-42421D01*
X58547Y-42421D02*
X58547Y-40746D01*
X58547Y-40746D02*
X58586Y-40707D01*
G54D22*
X58307Y-45157D02*
X58267Y-45196D01*
X57086Y-45196D02*
X57086Y-45295D01*
X58307Y-43996D02*
X58307Y-45157D01*
X54818Y-41141D02*
X54625Y-41333D01*
X55314Y-41141D02*
X54818Y-41141D01*
X59350Y-41043D02*
X59350Y-42125D01*
X59350Y-43011D02*
X59350Y-42913D01*
X57972Y-41043D02*
X56988Y-41043D01*
X59350Y-41043D02*
X58759Y-41043D01*
X57047Y-43031D02*
X57007Y-42992D01*
X57047Y-43996D02*
X57047Y-43031D01*
X56102Y-42814D02*
X56102Y-43503D01*
X56102Y-44291D02*
X56102Y-45177D01*
G54D21*
X56574Y-42047D02*
X56555Y-42027D01*
X57185Y-42047D02*
X56574Y-42047D01*
G54D22*
X57652Y-42401D02*
X57672Y-42421D01*
G54D23*
X57185Y-42401D02*
X57652Y-42401D01*
G54D22*
X57672Y-43361D02*
X57677Y-43366D01*
G54D23*
X57672Y-42421D02*
X57672Y-43361D01*
G54D21*
X56586Y-40157D02*
X56586Y-40707D01*
X56555Y-41240D02*
X56555Y-40739D01*
X56555Y-40739D02*
X56586Y-40707D01*
X57586Y-40157D02*
X57096Y-40157D01*
X56043Y-41240D02*
X56043Y-40835D01*
X56043Y-40835D02*
X56076Y-40802D01*
X56076Y-40802D02*
X56076Y-39913D01*
X56076Y-39913D02*
X56388Y-39601D01*
X56388Y-39601D02*
X56803Y-39601D01*
X56803Y-39601D02*
X57096Y-39894D01*
X57096Y-39894D02*
X57096Y-40157D01*
G54D10*
G36*
X58822Y-45464D02*
X58677Y-45464D01*
X58677Y-44455D01*
X58677Y-44402D01*
X58677Y-44043D01*
X58677Y-43948D01*
X58677Y-43589D01*
X58677Y-43536D01*
X58656Y-43487D01*
X58619Y-43449D01*
X58569Y-43429D01*
X58354Y-43429D01*
X58320Y-43462D01*
X58320Y-43982D01*
X58643Y-43982D01*
X58677Y-43948D01*
X58677Y-44043D01*
X58643Y-44009D01*
X58320Y-44009D01*
X58320Y-44529D01*
X58354Y-44562D01*
X58569Y-44562D01*
X58619Y-44542D01*
X58656Y-44504D01*
X58677Y-44455D01*
X58677Y-45464D01*
X58293Y-45464D01*
X58293Y-44529D01*
X58293Y-44009D01*
X57970Y-44009D01*
X57937Y-44043D01*
X57937Y-44270D01*
X57900Y-44255D01*
X57724Y-44255D01*
X57690Y-44289D01*
X57690Y-44612D01*
X57974Y-44612D01*
X58007Y-44578D01*
X58007Y-44547D01*
X58044Y-44562D01*
X58259Y-44562D01*
X58293Y-44529D01*
X58293Y-45464D01*
X58007Y-45464D01*
X58007Y-44888D01*
X58007Y-44835D01*
X58007Y-44673D01*
X57974Y-44639D01*
X57690Y-44639D01*
X57690Y-44962D01*
X57724Y-44996D01*
X57900Y-44996D01*
X57949Y-44975D01*
X57987Y-44938D01*
X58007Y-44888D01*
X58007Y-45464D01*
X57663Y-45464D01*
X57663Y-44962D01*
X57663Y-44639D01*
X57663Y-44612D01*
X57663Y-44289D01*
X57629Y-44255D01*
X57453Y-44255D01*
X57417Y-44270D01*
X57417Y-44043D01*
X57383Y-44009D01*
X57061Y-44009D01*
X57061Y-44529D01*
X57094Y-44562D01*
X57310Y-44562D01*
X57346Y-44547D01*
X57346Y-44578D01*
X57379Y-44612D01*
X57663Y-44612D01*
X57663Y-44639D01*
X57379Y-44639D01*
X57346Y-44673D01*
X57346Y-44835D01*
X57346Y-44888D01*
X57366Y-44938D01*
X57404Y-44975D01*
X57453Y-44996D01*
X57629Y-44996D01*
X57663Y-44962D01*
X57663Y-45464D01*
X57033Y-45464D01*
X57033Y-44529D01*
X57033Y-44009D01*
X57033Y-43982D01*
X57033Y-43462D01*
X57000Y-43429D01*
X56784Y-43429D01*
X56735Y-43449D01*
X56697Y-43487D01*
X56677Y-43536D01*
X56677Y-43589D01*
X56677Y-43948D01*
X56710Y-43982D01*
X57033Y-43982D01*
X57033Y-44009D01*
X56710Y-44009D01*
X56677Y-44043D01*
X56677Y-44402D01*
X56677Y-44455D01*
X56697Y-44504D01*
X56735Y-44542D01*
X56784Y-44562D01*
X57000Y-44562D01*
X57033Y-44529D01*
X57033Y-45464D01*
X56629Y-45464D01*
X56629Y-42370D01*
X56674Y-42370D01*
X56713Y-42353D01*
X56743Y-42323D01*
X56759Y-42284D01*
X56759Y-42242D01*
X56759Y-42203D01*
X56994Y-42203D01*
X57006Y-42216D01*
X57016Y-42220D01*
X57002Y-42226D01*
X56970Y-42258D01*
X56952Y-42300D01*
X56952Y-42345D01*
X56952Y-42502D01*
X56970Y-42544D01*
X57002Y-42576D01*
X57044Y-42594D01*
X57089Y-42594D01*
X57325Y-42594D01*
X57367Y-42576D01*
X57379Y-42564D01*
X57433Y-42564D01*
X57433Y-42668D01*
X57450Y-42710D01*
X57482Y-42743D01*
X57509Y-42753D01*
X57509Y-43015D01*
X57457Y-43015D01*
X57415Y-43033D01*
X57383Y-43065D01*
X57366Y-43107D01*
X57366Y-43152D01*
X57366Y-43456D01*
X57359Y-43449D01*
X57310Y-43429D01*
X57094Y-43429D01*
X57061Y-43462D01*
X57061Y-43982D01*
X57383Y-43982D01*
X57417Y-43948D01*
X57417Y-43699D01*
X57457Y-43716D01*
X57503Y-43716D01*
X57896Y-43716D01*
X57937Y-43699D01*
X57937Y-43948D01*
X57970Y-43982D01*
X58293Y-43982D01*
X58293Y-43462D01*
X58259Y-43429D01*
X58044Y-43429D01*
X57995Y-43449D01*
X57988Y-43456D01*
X57988Y-43107D01*
X57970Y-43065D01*
X57938Y-43033D01*
X57896Y-43015D01*
X57851Y-43015D01*
X57835Y-43015D01*
X57835Y-42753D01*
X57862Y-42743D01*
X57894Y-42710D01*
X57911Y-42668D01*
X57911Y-42623D01*
X57911Y-42173D01*
X57894Y-42131D01*
X57862Y-42099D01*
X57820Y-42082D01*
X57774Y-42082D01*
X57524Y-42082D01*
X57482Y-42099D01*
X57450Y-42131D01*
X57433Y-42173D01*
X57433Y-42218D01*
X57433Y-42238D01*
X57379Y-42238D01*
X57367Y-42226D01*
X57353Y-42220D01*
X57363Y-42216D01*
X57393Y-42186D01*
X57409Y-42147D01*
X57409Y-42104D01*
X57409Y-41947D01*
X57393Y-41908D01*
X57363Y-41878D01*
X57324Y-41862D01*
X57281Y-41862D01*
X57045Y-41862D01*
X57006Y-41878D01*
X56994Y-41891D01*
X56759Y-41891D01*
X56759Y-41770D01*
X56743Y-41731D01*
X56713Y-41701D01*
X56674Y-41685D01*
X56632Y-41685D01*
X56629Y-41685D01*
X56629Y-41669D01*
X57960Y-41669D01*
X57960Y-42905D01*
X58822Y-42905D01*
X58822Y-45464D01*
X58822Y-45464D01*
G37*
G54D22*
X58822Y-45464D02*
X58677Y-45464D01*
X58677Y-44455D01*
X58677Y-44402D01*
X58677Y-44043D01*
X58677Y-43948D01*
X58677Y-43589D01*
X58677Y-43536D01*
X58656Y-43487D01*
X58619Y-43449D01*
X58569Y-43429D01*
X58354Y-43429D01*
X58320Y-43462D01*
X58320Y-43982D01*
X58643Y-43982D01*
X58677Y-43948D01*
X58677Y-44043D01*
X58643Y-44009D01*
X58320Y-44009D01*
X58320Y-44529D01*
X58354Y-44562D01*
X58569Y-44562D01*
X58619Y-44542D01*
X58656Y-44504D01*
X58677Y-44455D01*
X58677Y-45464D01*
X58293Y-45464D01*
X58293Y-44529D01*
X58293Y-44009D01*
X57970Y-44009D01*
X57937Y-44043D01*
X57937Y-44270D01*
X57900Y-44255D01*
X57724Y-44255D01*
X57690Y-44289D01*
X57690Y-44612D01*
X57974Y-44612D01*
X58007Y-44578D01*
X58007Y-44547D01*
X58044Y-44562D01*
X58259Y-44562D01*
X58293Y-44529D01*
X58293Y-45464D01*
X58007Y-45464D01*
X58007Y-44888D01*
X58007Y-44835D01*
X58007Y-44673D01*
X57974Y-44639D01*
X57690Y-44639D01*
X57690Y-44962D01*
X57724Y-44996D01*
X57900Y-44996D01*
X57949Y-44975D01*
X57987Y-44938D01*
X58007Y-44888D01*
X58007Y-45464D01*
X57663Y-45464D01*
X57663Y-44962D01*
X57663Y-44639D01*
X57663Y-44612D01*
X57663Y-44289D01*
X57629Y-44255D01*
X57453Y-44255D01*
X57417Y-44270D01*
X57417Y-44043D01*
X57383Y-44009D01*
X57061Y-44009D01*
X57061Y-44529D01*
X57094Y-44562D01*
X57310Y-44562D01*
X57346Y-44547D01*
X57346Y-44578D01*
X57379Y-44612D01*
X57663Y-44612D01*
X57663Y-44639D01*
X57379Y-44639D01*
X57346Y-44673D01*
X57346Y-44835D01*
X57346Y-44888D01*
X57366Y-44938D01*
X57404Y-44975D01*
X57453Y-44996D01*
X57629Y-44996D01*
X57663Y-44962D01*
X57663Y-45464D01*
X57033Y-45464D01*
X57033Y-44529D01*
X57033Y-44009D01*
X57033Y-43982D01*
X57033Y-43462D01*
X57000Y-43429D01*
X56784Y-43429D01*
X56735Y-43449D01*
X56697Y-43487D01*
X56677Y-43536D01*
X56677Y-43589D01*
X56677Y-43948D01*
X56710Y-43982D01*
X57033Y-43982D01*
X57033Y-44009D01*
X56710Y-44009D01*
X56677Y-44043D01*
X56677Y-44402D01*
X56677Y-44455D01*
X56697Y-44504D01*
X56735Y-44542D01*
X56784Y-44562D01*
X57000Y-44562D01*
X57033Y-44529D01*
X57033Y-45464D01*
X56629Y-45464D01*
X56629Y-42370D01*
X56674Y-42370D01*
X56713Y-42353D01*
X56743Y-42323D01*
X56759Y-42284D01*
X56759Y-42242D01*
X56759Y-42203D01*
X56994Y-42203D01*
X57006Y-42216D01*
X57016Y-42220D01*
X57002Y-42226D01*
X56970Y-42258D01*
X56952Y-42300D01*
X56952Y-42345D01*
X56952Y-42502D01*
X56970Y-42544D01*
X57002Y-42576D01*
X57044Y-42594D01*
X57089Y-42594D01*
X57325Y-42594D01*
X57367Y-42576D01*
X57379Y-42564D01*
X57433Y-42564D01*
X57433Y-42668D01*
X57450Y-42710D01*
X57482Y-42743D01*
X57509Y-42753D01*
X57509Y-43015D01*
X57457Y-43015D01*
X57415Y-43033D01*
X57383Y-43065D01*
X57366Y-43107D01*
X57366Y-43152D01*
X57366Y-43456D01*
X57359Y-43449D01*
X57310Y-43429D01*
X57094Y-43429D01*
X57061Y-43462D01*
X57061Y-43982D01*
X57383Y-43982D01*
X57417Y-43948D01*
X57417Y-43699D01*
X57457Y-43716D01*
X57503Y-43716D01*
X57896Y-43716D01*
X57937Y-43699D01*
X57937Y-43948D01*
X57970Y-43982D01*
X58293Y-43982D01*
X58293Y-43462D01*
X58259Y-43429D01*
X58044Y-43429D01*
X57995Y-43449D01*
X57988Y-43456D01*
X57988Y-43107D01*
X57970Y-43065D01*
X57938Y-43033D01*
X57896Y-43015D01*
X57851Y-43015D01*
X57835Y-43015D01*
X57835Y-42753D01*
X57862Y-42743D01*
X57894Y-42710D01*
X57911Y-42668D01*
X57911Y-42623D01*
X57911Y-42173D01*
X57894Y-42131D01*
X57862Y-42099D01*
X57820Y-42082D01*
X57774Y-42082D01*
X57524Y-42082D01*
X57482Y-42099D01*
X57450Y-42131D01*
X57433Y-42173D01*
X57433Y-42218D01*
X57433Y-42238D01*
X57379Y-42238D01*
X57367Y-42226D01*
X57353Y-42220D01*
X57363Y-42216D01*
X57393Y-42186D01*
X57409Y-42147D01*
X57409Y-42104D01*
X57409Y-41947D01*
X57393Y-41908D01*
X57363Y-41878D01*
X57324Y-41862D01*
X57281Y-41862D01*
X57045Y-41862D01*
X57006Y-41878D01*
X56994Y-41891D01*
X56759Y-41891D01*
X56759Y-41770D01*
X56743Y-41731D01*
X56713Y-41701D01*
X56674Y-41685D01*
X56632Y-41685D01*
X56629Y-41685D01*
X56629Y-41669D01*
X57960Y-41669D01*
X57960Y-42905D01*
X58822Y-42905D01*
X58822Y-45464D01*
G54D10*
G36*
X56263Y-41685D02*
X56179Y-41685D01*
X56171Y-41688D01*
X56162Y-41685D01*
X56120Y-41685D01*
X55923Y-41685D01*
X55884Y-41701D01*
X55854Y-41731D01*
X55838Y-41770D01*
X55838Y-41812D01*
X55838Y-41871D01*
X55753Y-41871D01*
X55741Y-41863D01*
X55681Y-41851D01*
X55603Y-41851D01*
X55600Y-41848D01*
X55607Y-41845D01*
X55644Y-41808D01*
X55665Y-41758D01*
X55665Y-41700D01*
X55665Y-41606D01*
X55665Y-41548D01*
X55644Y-41499D01*
X55607Y-41461D01*
X55558Y-41441D01*
X55504Y-41441D01*
X55460Y-41441D01*
X55427Y-41474D01*
X55427Y-41639D01*
X55631Y-41639D01*
X55665Y-41606D01*
X55665Y-41700D01*
X55631Y-41667D01*
X55427Y-41667D01*
X55427Y-41675D01*
X55399Y-41675D01*
X55399Y-41667D01*
X55399Y-41639D01*
X55399Y-41474D01*
X55366Y-41441D01*
X55322Y-41441D01*
X55268Y-41441D01*
X55219Y-41461D01*
X55181Y-41499D01*
X55161Y-41548D01*
X55161Y-41606D01*
X55194Y-41639D01*
X55399Y-41639D01*
X55399Y-41667D01*
X55194Y-41667D01*
X55161Y-41700D01*
X55161Y-41758D01*
X55181Y-41808D01*
X55219Y-41845D01*
X55225Y-41848D01*
X55222Y-41851D01*
X55139Y-41851D01*
X55111Y-41823D01*
X55060Y-41789D01*
X55001Y-41777D01*
X54984Y-41777D01*
X54984Y-41485D01*
X54984Y-41381D01*
X54984Y-41286D01*
X54984Y-41182D01*
X54964Y-41133D01*
X54926Y-41095D01*
X54877Y-41075D01*
X54824Y-41075D01*
X54673Y-41075D01*
X54639Y-41108D01*
X54639Y-41320D01*
X54951Y-41320D01*
X54984Y-41286D01*
X54984Y-41381D01*
X54951Y-41347D01*
X54639Y-41347D01*
X54639Y-41559D01*
X54673Y-41592D01*
X54824Y-41592D01*
X54877Y-41592D01*
X54926Y-41572D01*
X54964Y-41534D01*
X54984Y-41485D01*
X54984Y-41777D01*
X54953Y-41777D01*
X54941Y-41748D01*
X54911Y-41718D01*
X54872Y-41702D01*
X54829Y-41702D01*
X54615Y-41702D01*
X54505Y-41592D01*
X54578Y-41592D01*
X54612Y-41559D01*
X54612Y-41347D01*
X54604Y-41347D01*
X54604Y-41320D01*
X54612Y-41320D01*
X54612Y-41108D01*
X54578Y-41075D01*
X54543Y-41075D01*
X54662Y-40956D01*
X54900Y-40956D01*
X54900Y-40956D01*
X54960Y-40944D01*
X55011Y-40910D01*
X55207Y-40714D01*
X55207Y-40714D01*
X55240Y-40664D01*
X55240Y-40664D01*
X55240Y-40663D01*
X55267Y-40663D01*
X55920Y-40663D01*
X55920Y-40743D01*
X55898Y-40776D01*
X55887Y-40835D01*
X55887Y-40912D01*
X55884Y-40913D01*
X55854Y-40943D01*
X55838Y-40982D01*
X55838Y-41025D01*
X55838Y-41497D01*
X55854Y-41536D01*
X55884Y-41566D01*
X55923Y-41582D01*
X55966Y-41582D01*
X56162Y-41582D01*
X56171Y-41579D01*
X56179Y-41582D01*
X56221Y-41582D01*
X56263Y-41582D01*
X56263Y-41685D01*
X56263Y-41685D01*
G37*
G54D22*
X56263Y-41685D02*
X56179Y-41685D01*
X56171Y-41688D01*
X56162Y-41685D01*
X56120Y-41685D01*
X55923Y-41685D01*
X55884Y-41701D01*
X55854Y-41731D01*
X55838Y-41770D01*
X55838Y-41812D01*
X55838Y-41871D01*
X55753Y-41871D01*
X55741Y-41863D01*
X55681Y-41851D01*
X55603Y-41851D01*
X55600Y-41848D01*
X55607Y-41845D01*
X55644Y-41808D01*
X55665Y-41758D01*
X55665Y-41700D01*
X55665Y-41606D01*
X55665Y-41548D01*
X55644Y-41499D01*
X55607Y-41461D01*
X55558Y-41441D01*
X55504Y-41441D01*
X55460Y-41441D01*
X55427Y-41474D01*
X55427Y-41639D01*
X55631Y-41639D01*
X55665Y-41606D01*
X55665Y-41700D01*
X55631Y-41667D01*
X55427Y-41667D01*
X55427Y-41675D01*
X55399Y-41675D01*
X55399Y-41667D01*
X55399Y-41639D01*
X55399Y-41474D01*
X55366Y-41441D01*
X55322Y-41441D01*
X55268Y-41441D01*
X55219Y-41461D01*
X55181Y-41499D01*
X55161Y-41548D01*
X55161Y-41606D01*
X55194Y-41639D01*
X55399Y-41639D01*
X55399Y-41667D01*
X55194Y-41667D01*
X55161Y-41700D01*
X55161Y-41758D01*
X55181Y-41808D01*
X55219Y-41845D01*
X55225Y-41848D01*
X55222Y-41851D01*
X55139Y-41851D01*
X55111Y-41823D01*
X55060Y-41789D01*
X55001Y-41777D01*
X54984Y-41777D01*
X54984Y-41485D01*
X54984Y-41381D01*
X54984Y-41286D01*
X54984Y-41182D01*
X54964Y-41133D01*
X54926Y-41095D01*
X54877Y-41075D01*
X54824Y-41075D01*
X54673Y-41075D01*
X54639Y-41108D01*
X54639Y-41320D01*
X54951Y-41320D01*
X54984Y-41286D01*
X54984Y-41381D01*
X54951Y-41347D01*
X54639Y-41347D01*
X54639Y-41559D01*
X54673Y-41592D01*
X54824Y-41592D01*
X54877Y-41592D01*
X54926Y-41572D01*
X54964Y-41534D01*
X54984Y-41485D01*
X54984Y-41777D01*
X54953Y-41777D01*
X54941Y-41748D01*
X54911Y-41718D01*
X54872Y-41702D01*
X54829Y-41702D01*
X54615Y-41702D01*
X54505Y-41592D01*
X54578Y-41592D01*
X54612Y-41559D01*
X54612Y-41347D01*
X54604Y-41347D01*
X54604Y-41320D01*
X54612Y-41320D01*
X54612Y-41108D01*
X54578Y-41075D01*
X54543Y-41075D01*
X54662Y-40956D01*
X54900Y-40956D01*
X54900Y-40956D01*
X54960Y-40944D01*
X55011Y-40910D01*
X55207Y-40714D01*
X55207Y-40714D01*
X55240Y-40664D01*
X55240Y-40664D01*
X55240Y-40663D01*
X55267Y-40663D01*
X55920Y-40663D01*
X55920Y-40743D01*
X55898Y-40776D01*
X55887Y-40835D01*
X55887Y-40912D01*
X55884Y-40913D01*
X55854Y-40943D01*
X55838Y-40982D01*
X55838Y-41025D01*
X55838Y-41497D01*
X55854Y-41536D01*
X55884Y-41566D01*
X55923Y-41582D01*
X55966Y-41582D01*
X56162Y-41582D01*
X56171Y-41579D01*
X56179Y-41582D01*
X56221Y-41582D01*
X56263Y-41582D01*
X56263Y-41685D01*
G54D10*
G36*
X60818Y-44475D02*
X60742Y-44860D01*
X60531Y-45176D01*
X60440Y-45237D01*
X60440Y-45001D01*
X60440Y-44959D01*
X60440Y-43974D01*
X60440Y-40670D01*
X60440Y-40628D01*
X60440Y-39644D01*
X60424Y-39605D01*
X60394Y-39575D01*
X60355Y-39559D01*
X60313Y-39559D01*
X59329Y-39559D01*
X59290Y-39575D01*
X59260Y-39605D01*
X59244Y-39644D01*
X59244Y-39686D01*
X59244Y-40670D01*
X59260Y-40709D01*
X59290Y-40739D01*
X59329Y-40755D01*
X59371Y-40755D01*
X60355Y-40755D01*
X60394Y-40739D01*
X60424Y-40709D01*
X60440Y-40670D01*
X60440Y-43974D01*
X60424Y-43935D01*
X60394Y-43905D01*
X60355Y-43889D01*
X60313Y-43889D01*
X59329Y-43889D01*
X59290Y-43905D01*
X59260Y-43935D01*
X59244Y-43974D01*
X59244Y-44017D01*
X59244Y-45001D01*
X59260Y-45040D01*
X59290Y-45070D01*
X59329Y-45086D01*
X59371Y-45086D01*
X60355Y-45086D01*
X60394Y-45070D01*
X60424Y-45040D01*
X60440Y-45001D01*
X60440Y-45237D01*
X60215Y-45387D01*
X59830Y-45464D01*
X59188Y-45464D01*
X59169Y-41224D01*
X59060Y-41224D01*
X59060Y-40231D01*
X59060Y-40171D01*
X59060Y-40143D01*
X59060Y-40083D01*
X59019Y-39903D01*
X58911Y-39752D01*
X58755Y-39654D01*
X58674Y-39631D01*
X58600Y-39657D01*
X58600Y-40143D01*
X59060Y-40143D01*
X59060Y-40171D01*
X58600Y-40171D01*
X58600Y-40657D01*
X58674Y-40683D01*
X58755Y-40660D01*
X58911Y-40562D01*
X59019Y-40411D01*
X59060Y-40231D01*
X59060Y-41224D01*
X58572Y-41224D01*
X58572Y-40657D01*
X58572Y-40171D01*
X58572Y-40143D01*
X58572Y-39657D01*
X58498Y-39631D01*
X58418Y-39654D01*
X58261Y-39752D01*
X58154Y-39903D01*
X58112Y-40083D01*
X58112Y-40143D01*
X58572Y-40143D01*
X58572Y-40171D01*
X58112Y-40171D01*
X58112Y-40231D01*
X58154Y-40411D01*
X58261Y-40562D01*
X58418Y-40660D01*
X58498Y-40683D01*
X58572Y-40657D01*
X58572Y-41224D01*
X56759Y-41224D01*
X56759Y-40982D01*
X56743Y-40943D01*
X56713Y-40913D01*
X56711Y-40912D01*
X56711Y-40796D01*
X56731Y-40767D01*
X56742Y-40707D01*
X56742Y-40707D01*
X56742Y-40642D01*
X56757Y-40639D01*
X56902Y-40542D01*
X56998Y-40398D01*
X57020Y-40290D01*
X57036Y-40301D01*
X57096Y-40313D01*
X57157Y-40313D01*
X57174Y-40398D01*
X57271Y-40542D01*
X57415Y-40639D01*
X57586Y-40673D01*
X57757Y-40639D01*
X57902Y-40542D01*
X57998Y-40398D01*
X58032Y-40227D01*
X58032Y-40087D01*
X57998Y-39916D01*
X57902Y-39771D01*
X57757Y-39675D01*
X57586Y-39641D01*
X57415Y-39675D01*
X57271Y-39771D01*
X57235Y-39825D01*
X57207Y-39783D01*
X56914Y-39490D01*
X56863Y-39457D01*
X56803Y-39445D01*
X56388Y-39445D01*
X56328Y-39457D01*
X56277Y-39490D01*
X56032Y-39735D01*
X56016Y-39697D01*
X55986Y-39667D01*
X55947Y-39651D01*
X55905Y-39651D01*
X55225Y-39651D01*
X55186Y-39667D01*
X55156Y-39697D01*
X55140Y-39736D01*
X55140Y-39778D01*
X55140Y-40001D01*
X55096Y-40001D01*
X55036Y-40013D01*
X54985Y-40046D01*
X54952Y-40097D01*
X54940Y-40157D01*
X54940Y-40539D01*
X54929Y-40550D01*
X54929Y-39644D01*
X54912Y-39605D01*
X54883Y-39575D01*
X54843Y-39559D01*
X54801Y-39559D01*
X53817Y-39559D01*
X53778Y-39575D01*
X53748Y-39605D01*
X53732Y-39644D01*
X53732Y-39686D01*
X53732Y-40670D01*
X53748Y-40709D01*
X53778Y-40739D01*
X53817Y-40755D01*
X53859Y-40755D01*
X54420Y-40755D01*
X54140Y-41035D01*
X54106Y-41086D01*
X54094Y-41146D01*
X54094Y-41558D01*
X54106Y-41618D01*
X54140Y-41669D01*
X54294Y-41823D01*
X54294Y-41830D01*
X54294Y-42080D01*
X54310Y-42119D01*
X54340Y-42148D01*
X54379Y-42165D01*
X54422Y-42165D01*
X54872Y-42165D01*
X54911Y-42148D01*
X54941Y-42119D01*
X54948Y-42101D01*
X54964Y-42118D01*
X54964Y-42118D01*
X54998Y-42140D01*
X55015Y-42152D01*
X55015Y-42152D01*
X55074Y-42164D01*
X55222Y-42164D01*
X55235Y-42176D01*
X55274Y-42192D01*
X55316Y-42192D01*
X55552Y-42192D01*
X55591Y-42176D01*
X55603Y-42164D01*
X55629Y-42164D01*
X55629Y-42164D01*
X55641Y-42171D01*
X55641Y-42171D01*
X55651Y-42173D01*
X55701Y-42183D01*
X55838Y-42183D01*
X55838Y-42284D01*
X55854Y-42323D01*
X55884Y-42353D01*
X55923Y-42370D01*
X55966Y-42370D01*
X56162Y-42370D01*
X56171Y-42366D01*
X56179Y-42370D01*
X56221Y-42370D01*
X56263Y-42370D01*
X56263Y-45464D01*
X54929Y-45464D01*
X54929Y-45001D01*
X54929Y-44959D01*
X54929Y-43974D01*
X54912Y-43935D01*
X54883Y-43905D01*
X54843Y-43889D01*
X54801Y-43889D01*
X53817Y-43889D01*
X53778Y-43905D01*
X53748Y-43935D01*
X53732Y-43974D01*
X53732Y-44017D01*
X53732Y-45001D01*
X53748Y-45040D01*
X53778Y-45070D01*
X53817Y-45086D01*
X53859Y-45086D01*
X54843Y-45086D01*
X54883Y-45070D01*
X54912Y-45040D01*
X54929Y-45001D01*
X54929Y-45464D01*
X54343Y-45464D01*
X53958Y-45387D01*
X53642Y-45176D01*
X53430Y-44860D01*
X53354Y-44475D01*
X53354Y-40169D01*
X53430Y-39784D01*
X53642Y-39468D01*
X53958Y-39257D01*
X54343Y-39181D01*
X59830Y-39181D01*
X60215Y-39257D01*
X60531Y-39468D01*
X60742Y-39784D01*
X60818Y-40169D01*
X60818Y-44475D01*
X60818Y-44475D01*
G37*
G54D22*
X60818Y-44475D02*
X60742Y-44860D01*
X60531Y-45176D01*
X60440Y-45237D01*
X60440Y-45001D01*
X60440Y-44959D01*
X60440Y-43974D01*
X60440Y-40670D01*
X60440Y-40628D01*
X60440Y-39644D01*
X60424Y-39605D01*
X60394Y-39575D01*
X60355Y-39559D01*
X60313Y-39559D01*
X59329Y-39559D01*
X59290Y-39575D01*
X59260Y-39605D01*
X59244Y-39644D01*
X59244Y-39686D01*
X59244Y-40670D01*
X59260Y-40709D01*
X59290Y-40739D01*
X59329Y-40755D01*
X59371Y-40755D01*
X60355Y-40755D01*
X60394Y-40739D01*
X60424Y-40709D01*
X60440Y-40670D01*
X60440Y-43974D01*
X60424Y-43935D01*
X60394Y-43905D01*
X60355Y-43889D01*
X60313Y-43889D01*
X59329Y-43889D01*
X59290Y-43905D01*
X59260Y-43935D01*
X59244Y-43974D01*
X59244Y-44017D01*
X59244Y-45001D01*
X59260Y-45040D01*
X59290Y-45070D01*
X59329Y-45086D01*
X59371Y-45086D01*
X60355Y-45086D01*
X60394Y-45070D01*
X60424Y-45040D01*
X60440Y-45001D01*
X60440Y-45237D01*
X60215Y-45387D01*
X59830Y-45464D01*
X59188Y-45464D01*
X59169Y-41224D01*
X59060Y-41224D01*
X59060Y-40231D01*
X59060Y-40171D01*
X59060Y-40143D01*
X59060Y-40083D01*
X59019Y-39903D01*
X58911Y-39752D01*
X58755Y-39654D01*
X58674Y-39631D01*
X58600Y-39657D01*
X58600Y-40143D01*
X59060Y-40143D01*
X59060Y-40171D01*
X58600Y-40171D01*
X58600Y-40657D01*
X58674Y-40683D01*
X58755Y-40660D01*
X58911Y-40562D01*
X59019Y-40411D01*
X59060Y-40231D01*
X59060Y-41224D01*
X58572Y-41224D01*
X58572Y-40657D01*
X58572Y-40171D01*
X58572Y-40143D01*
X58572Y-39657D01*
X58498Y-39631D01*
X58418Y-39654D01*
X58261Y-39752D01*
X58154Y-39903D01*
X58112Y-40083D01*
X58112Y-40143D01*
X58572Y-40143D01*
X58572Y-40171D01*
X58112Y-40171D01*
X58112Y-40231D01*
X58154Y-40411D01*
X58261Y-40562D01*
X58418Y-40660D01*
X58498Y-40683D01*
X58572Y-40657D01*
X58572Y-41224D01*
X56759Y-41224D01*
X56759Y-40982D01*
X56743Y-40943D01*
X56713Y-40913D01*
X56711Y-40912D01*
X56711Y-40796D01*
X56731Y-40767D01*
X56742Y-40707D01*
X56742Y-40707D01*
X56742Y-40642D01*
X56757Y-40639D01*
X56902Y-40542D01*
X56998Y-40398D01*
X57020Y-40290D01*
X57036Y-40301D01*
X57096Y-40313D01*
X57157Y-40313D01*
X57174Y-40398D01*
X57271Y-40542D01*
X57415Y-40639D01*
X57586Y-40673D01*
X57757Y-40639D01*
X57902Y-40542D01*
X57998Y-40398D01*
X58032Y-40227D01*
X58032Y-40087D01*
X57998Y-39916D01*
X57902Y-39771D01*
X57757Y-39675D01*
X57586Y-39641D01*
X57415Y-39675D01*
X57271Y-39771D01*
X57235Y-39825D01*
X57207Y-39783D01*
X56914Y-39490D01*
X56863Y-39457D01*
X56803Y-39445D01*
X56388Y-39445D01*
X56328Y-39457D01*
X56277Y-39490D01*
X56032Y-39735D01*
X56016Y-39697D01*
X55986Y-39667D01*
X55947Y-39651D01*
X55905Y-39651D01*
X55225Y-39651D01*
X55186Y-39667D01*
X55156Y-39697D01*
X55140Y-39736D01*
X55140Y-39778D01*
X55140Y-40001D01*
X55096Y-40001D01*
X55036Y-40013D01*
X54985Y-40046D01*
X54952Y-40097D01*
X54940Y-40157D01*
X54940Y-40539D01*
X54929Y-40550D01*
X54929Y-39644D01*
X54912Y-39605D01*
X54883Y-39575D01*
X54843Y-39559D01*
X54801Y-39559D01*
X53817Y-39559D01*
X53778Y-39575D01*
X53748Y-39605D01*
X53732Y-39644D01*
X53732Y-39686D01*
X53732Y-40670D01*
X53748Y-40709D01*
X53778Y-40739D01*
X53817Y-40755D01*
X53859Y-40755D01*
X54420Y-40755D01*
X54140Y-41035D01*
X54106Y-41086D01*
X54094Y-41146D01*
X54094Y-41558D01*
X54106Y-41618D01*
X54140Y-41669D01*
X54294Y-41823D01*
X54294Y-41830D01*
X54294Y-42080D01*
X54310Y-42119D01*
X54340Y-42148D01*
X54379Y-42165D01*
X54422Y-42165D01*
X54872Y-42165D01*
X54911Y-42148D01*
X54941Y-42119D01*
X54948Y-42101D01*
X54964Y-42118D01*
X54964Y-42118D01*
X54998Y-42140D01*
X55015Y-42152D01*
X55015Y-42152D01*
X55074Y-42164D01*
X55222Y-42164D01*
X55235Y-42176D01*
X55274Y-42192D01*
X55316Y-42192D01*
X55552Y-42192D01*
X55591Y-42176D01*
X55603Y-42164D01*
X55629Y-42164D01*
X55629Y-42164D01*
X55641Y-42171D01*
X55641Y-42171D01*
X55651Y-42173D01*
X55701Y-42183D01*
X55838Y-42183D01*
X55838Y-42284D01*
X55854Y-42323D01*
X55884Y-42353D01*
X55923Y-42370D01*
X55966Y-42370D01*
X56162Y-42370D01*
X56171Y-42366D01*
X56179Y-42370D01*
X56221Y-42370D01*
X56263Y-42370D01*
X56263Y-45464D01*
X54929Y-45464D01*
X54929Y-45001D01*
X54929Y-44959D01*
X54929Y-43974D01*
X54912Y-43935D01*
X54883Y-43905D01*
X54843Y-43889D01*
X54801Y-43889D01*
X53817Y-43889D01*
X53778Y-43905D01*
X53748Y-43935D01*
X53732Y-43974D01*
X53732Y-44017D01*
X53732Y-45001D01*
X53748Y-45040D01*
X53778Y-45070D01*
X53817Y-45086D01*
X53859Y-45086D01*
X54843Y-45086D01*
X54883Y-45070D01*
X54912Y-45040D01*
X54929Y-45001D01*
X54929Y-45464D01*
X54343Y-45464D01*
X53958Y-45387D01*
X53642Y-45176D01*
X53430Y-44860D01*
X53354Y-44475D01*
X53354Y-40169D01*
X53430Y-39784D01*
X53642Y-39468D01*
X53958Y-39257D01*
X54343Y-39181D01*
X59830Y-39181D01*
X60215Y-39257D01*
X60531Y-39468D01*
X60742Y-39784D01*
X60818Y-40169D01*
X60818Y-44475D01*
M02*
